<?xml version="1.0" encoding="UTF-8" standalone="no"?>
<!DOCTYPE svg PUBLIC "-//W3C//DTD SVG 1.1//EN"
 "http://www.w3.org/Graphics/SVG/1.1/DTD/svg11.dtd">
<!-- Generated by graphviz version 2.40.1 (20161225.0304)
 -->
<!-- Title: G Pages: 1 -->
<svg width="408pt" height="3768pt"
 viewBox="0.00 0.00 408.00 3768.00" xmlns="http://www.w3.org/2000/svg" xmlns:xlink="http://www.w3.org/1999/xlink">
<g id="graph0" class="graph" transform="scale(1 1) rotate(0) translate(4 3764)">
<title>G</title>
<polygon fill="#ffffff" stroke="transparent" points="-4,4 -4,-3764 404,-3764 404,4 -4,4"/>
<!-- 140397247378064 -->
<g id="node1" class="node">
<title>140397247378064</title>
<polygon fill="none" stroke="#000000" points="290,-3723.5 290,-3759.5 367,-3759.5 367,-3723.5 290,-3723.5"/>
<text text-anchor="middle" x="328.5" y="-3737.8" font-family="Times,serif" font-size="14.00" fill="#000000">InputLayer</text>
</g>
<!-- 140395497457616 -->
<g id="node2" class="node">
<title>140395497457616</title>
<polygon fill="none" stroke="#000000" points="279,-3650.5 279,-3686.5 378,-3686.5 378,-3650.5 279,-3650.5"/>
<text text-anchor="middle" x="328.5" y="-3664.8" font-family="Times,serif" font-size="14.00" fill="#000000">ConvLSTM2D</text>
</g>
<!-- 140397247378064&#45;&gt;140395497457616 -->
<g id="edge1" class="edge">
<title>140397247378064&#45;&gt;140395497457616</title>
<path fill="none" stroke="#000000" d="M328.5,-3723.4551C328.5,-3715.3828 328.5,-3705.6764 328.5,-3696.6817"/>
<polygon fill="#000000" stroke="#000000" points="332.0001,-3696.5903 328.5,-3686.5904 325.0001,-3696.5904 332.0001,-3696.5903"/>
</g>
<!-- 140395497463952 -->
<g id="node3" class="node">
<title>140395497463952</title>
<polygon fill="none" stroke="#000000" points="257,-3577.5 257,-3613.5 400,-3613.5 400,-3577.5 257,-3577.5"/>
<text text-anchor="middle" x="328.5" y="-3591.8" font-family="Times,serif" font-size="14.00" fill="#000000">BatchNormalizationV1</text>
</g>
<!-- 140395497457616&#45;&gt;140395497463952 -->
<g id="edge2" class="edge">
<title>140395497457616&#45;&gt;140395497463952</title>
<path fill="none" stroke="#000000" d="M328.5,-3650.4551C328.5,-3642.3828 328.5,-3632.6764 328.5,-3623.6817"/>
<polygon fill="#000000" stroke="#000000" points="332.0001,-3623.5903 328.5,-3613.5904 325.0001,-3623.5904 332.0001,-3623.5903"/>
</g>
<!-- 140395487562640 -->
<g id="node4" class="node">
<title>140395487562640</title>
<polygon fill="none" stroke="#000000" points="297.5,-3504.5 297.5,-3540.5 359.5,-3540.5 359.5,-3504.5 297.5,-3504.5"/>
<text text-anchor="middle" x="328.5" y="-3518.8" font-family="Times,serif" font-size="14.00" fill="#000000">Conv2D</text>
</g>
<!-- 140395497463952&#45;&gt;140395487562640 -->
<g id="edge3" class="edge">
<title>140395497463952&#45;&gt;140395487562640</title>
<path fill="none" stroke="#000000" d="M328.5,-3577.4551C328.5,-3569.3828 328.5,-3559.6764 328.5,-3550.6817"/>
<polygon fill="#000000" stroke="#000000" points="332.0001,-3550.5903 328.5,-3540.5904 325.0001,-3550.5904 332.0001,-3550.5903"/>
</g>
<!-- 140395488013904 -->
<g id="node5" class="node">
<title>140395488013904</title>
<polygon fill="none" stroke="#000000" points="257,-3431.5 257,-3467.5 400,-3467.5 400,-3431.5 257,-3431.5"/>
<text text-anchor="middle" x="328.5" y="-3445.8" font-family="Times,serif" font-size="14.00" fill="#000000">BatchNormalizationV1</text>
</g>
<!-- 140395487562640&#45;&gt;140395488013904 -->
<g id="edge4" class="edge">
<title>140395487562640&#45;&gt;140395488013904</title>
<path fill="none" stroke="#000000" d="M328.5,-3504.4551C328.5,-3496.3828 328.5,-3486.6764 328.5,-3477.6817"/>
<polygon fill="#000000" stroke="#000000" points="332.0001,-3477.5903 328.5,-3467.5904 325.0001,-3477.5904 332.0001,-3477.5903"/>
</g>
<!-- 140395488012560 -->
<g id="node6" class="node">
<title>140395488012560</title>
<polygon fill="none" stroke="#000000" points="297.5,-3358.5 297.5,-3394.5 359.5,-3394.5 359.5,-3358.5 297.5,-3358.5"/>
<text text-anchor="middle" x="328.5" y="-3372.8" font-family="Times,serif" font-size="14.00" fill="#000000">Conv2D</text>
</g>
<!-- 140395488013904&#45;&gt;140395488012560 -->
<g id="edge5" class="edge">
<title>140395488013904&#45;&gt;140395488012560</title>
<path fill="none" stroke="#000000" d="M328.5,-3431.4551C328.5,-3423.3828 328.5,-3413.6764 328.5,-3404.6817"/>
<polygon fill="#000000" stroke="#000000" points="332.0001,-3404.5903 328.5,-3394.5904 325.0001,-3404.5904 332.0001,-3404.5903"/>
</g>
<!-- 140395498931792 -->
<g id="node7" class="node">
<title>140395498931792</title>
<polygon fill="none" stroke="#000000" points="207,-3285.5 207,-3321.5 350,-3321.5 350,-3285.5 207,-3285.5"/>
<text text-anchor="middle" x="278.5" y="-3299.8" font-family="Times,serif" font-size="14.00" fill="#000000">BatchNormalizationV1</text>
</g>
<!-- 140395488012560&#45;&gt;140395498931792 -->
<g id="edge6" class="edge">
<title>140395488012560&#45;&gt;140395498931792</title>
<path fill="none" stroke="#000000" d="M316.1404,-3358.4551C310.2509,-3349.8564 303.0913,-3339.4034 296.6039,-3329.9316"/>
<polygon fill="#000000" stroke="#000000" points="299.4292,-3327.8628 290.8907,-3321.5904 293.654,-3331.8185 299.4292,-3327.8628"/>
</g>
<!-- 140395476502096 -->
<g id="node47" class="node">
<title>140395476502096</title>
<polygon fill="none" stroke="#000000" points="287,-365.5 287,-401.5 370,-401.5 370,-365.5 287,-365.5"/>
<text text-anchor="middle" x="328.5" y="-379.8" font-family="Times,serif" font-size="14.00" fill="#000000">Concatenate</text>
</g>
<!-- 140395488012560&#45;&gt;140395476502096 -->
<g id="edge50" class="edge">
<title>140395488012560&#45;&gt;140395476502096</title>
<path fill="none" stroke="#000000" d="M340.9241,-3358.0453C347.3108,-3347.8094 354.733,-3334.628 359.5,-3322 374.1685,-3283.1423 378.5,-3272.0342 378.5,-3230.5 378.5,-3230.5 378.5,-3230.5 378.5,-529.5 378.5,-486.1716 358.5469,-439.3224 343.85,-410.6914"/>
<polygon fill="#000000" stroke="#000000" points="346.871,-408.9171 339.1037,-401.7116 340.6823,-412.1882 346.871,-408.9171"/>
</g>
<!-- 140395485210064 -->
<g id="node8" class="node">
<title>140395485210064</title>
<polygon fill="none" stroke="#000000" points="228,-3212.5 228,-3248.5 329,-3248.5 329,-3212.5 228,-3212.5"/>
<text text-anchor="middle" x="278.5" y="-3226.8" font-family="Times,serif" font-size="14.00" fill="#000000">MaxPooling2D</text>
</g>
<!-- 140395498931792&#45;&gt;140395485210064 -->
<g id="edge7" class="edge">
<title>140395498931792&#45;&gt;140395485210064</title>
<path fill="none" stroke="#000000" d="M278.5,-3285.4551C278.5,-3277.3828 278.5,-3267.6764 278.5,-3258.6817"/>
<polygon fill="#000000" stroke="#000000" points="282.0001,-3258.5903 278.5,-3248.5904 275.0001,-3258.5904 282.0001,-3258.5903"/>
</g>
<!-- 140395485096464 -->
<g id="node9" class="node">
<title>140395485096464</title>
<polygon fill="none" stroke="#000000" points="247.5,-3139.5 247.5,-3175.5 309.5,-3175.5 309.5,-3139.5 247.5,-3139.5"/>
<text text-anchor="middle" x="278.5" y="-3153.8" font-family="Times,serif" font-size="14.00" fill="#000000">Conv2D</text>
</g>
<!-- 140395485210064&#45;&gt;140395485096464 -->
<g id="edge8" class="edge">
<title>140395485210064&#45;&gt;140395485096464</title>
<path fill="none" stroke="#000000" d="M278.5,-3212.4551C278.5,-3204.3828 278.5,-3194.6764 278.5,-3185.6817"/>
<polygon fill="#000000" stroke="#000000" points="282.0001,-3185.5903 278.5,-3175.5904 275.0001,-3185.5904 282.0001,-3185.5903"/>
</g>
<!-- 140395484799120 -->
<g id="node10" class="node">
<title>140395484799120</title>
<polygon fill="none" stroke="#000000" points="207,-3066.5 207,-3102.5 350,-3102.5 350,-3066.5 207,-3066.5"/>
<text text-anchor="middle" x="278.5" y="-3080.8" font-family="Times,serif" font-size="14.00" fill="#000000">BatchNormalizationV1</text>
</g>
<!-- 140395485096464&#45;&gt;140395484799120 -->
<g id="edge9" class="edge">
<title>140395485096464&#45;&gt;140395484799120</title>
<path fill="none" stroke="#000000" d="M278.5,-3139.4551C278.5,-3131.3828 278.5,-3121.6764 278.5,-3112.6817"/>
<polygon fill="#000000" stroke="#000000" points="282.0001,-3112.5903 278.5,-3102.5904 275.0001,-3112.5904 282.0001,-3112.5903"/>
</g>
<!-- 140395484611152 -->
<g id="node11" class="node">
<title>140395484611152</title>
<polygon fill="none" stroke="#000000" points="247.5,-2993.5 247.5,-3029.5 309.5,-3029.5 309.5,-2993.5 247.5,-2993.5"/>
<text text-anchor="middle" x="278.5" y="-3007.8" font-family="Times,serif" font-size="14.00" fill="#000000">Conv2D</text>
</g>
<!-- 140395484799120&#45;&gt;140395484611152 -->
<g id="edge10" class="edge">
<title>140395484799120&#45;&gt;140395484611152</title>
<path fill="none" stroke="#000000" d="M278.5,-3066.4551C278.5,-3058.3828 278.5,-3048.6764 278.5,-3039.6817"/>
<polygon fill="#000000" stroke="#000000" points="282.0001,-3039.5903 278.5,-3029.5904 275.0001,-3039.5904 282.0001,-3039.5903"/>
</g>
<!-- 140395484191184 -->
<g id="node12" class="node">
<title>140395484191184</title>
<polygon fill="none" stroke="#000000" points="138,-2920.5 138,-2956.5 281,-2956.5 281,-2920.5 138,-2920.5"/>
<text text-anchor="middle" x="209.5" y="-2934.8" font-family="Times,serif" font-size="14.00" fill="#000000">BatchNormalizationV1</text>
</g>
<!-- 140395484611152&#45;&gt;140395484191184 -->
<g id="edge11" class="edge">
<title>140395484611152&#45;&gt;140395484191184</title>
<path fill="none" stroke="#000000" d="M261.4438,-2993.4551C253.0675,-2984.5932 242.8295,-2973.7616 233.6638,-2964.0646"/>
<polygon fill="#000000" stroke="#000000" points="236.0119,-2961.4535 226.5991,-2956.5904 230.9247,-2966.262 236.0119,-2961.4535"/>
</g>
<!-- 140395477900432 -->
<g id="node41" class="node">
<title>140395477900432</title>
<polygon fill="none" stroke="#000000" points="237,-803.5 237,-839.5 320,-839.5 320,-803.5 237,-803.5"/>
<text text-anchor="middle" x="278.5" y="-817.8" font-family="Times,serif" font-size="14.00" fill="#000000">Concatenate</text>
</g>
<!-- 140395484611152&#45;&gt;140395477900432 -->
<g id="edge43" class="edge">
<title>140395484611152&#45;&gt;140395477900432</title>
<path fill="none" stroke="#000000" d="M284.9232,-2993.3254C294.0033,-2965.9656 309.5,-2912.4013 309.5,-2865.5 309.5,-2865.5 309.5,-2865.5 309.5,-967.5 309.5,-925.7286 297.2078,-878.6719 288.1042,-849.5495"/>
<polygon fill="#000000" stroke="#000000" points="291.3209,-848.1198 284.9232,-839.6746 284.658,-850.2661 291.3209,-848.1198"/>
</g>
<!-- 140395484262032 -->
<g id="node13" class="node">
<title>140395484262032</title>
<polygon fill="none" stroke="#000000" points="159,-2847.5 159,-2883.5 260,-2883.5 260,-2847.5 159,-2847.5"/>
<text text-anchor="middle" x="209.5" y="-2861.8" font-family="Times,serif" font-size="14.00" fill="#000000">MaxPooling2D</text>
</g>
<!-- 140395484191184&#45;&gt;140395484262032 -->
<g id="edge12" class="edge">
<title>140395484191184&#45;&gt;140395484262032</title>
<path fill="none" stroke="#000000" d="M209.5,-2920.4551C209.5,-2912.3828 209.5,-2902.6764 209.5,-2893.6817"/>
<polygon fill="#000000" stroke="#000000" points="213.0001,-2893.5903 209.5,-2883.5904 206.0001,-2893.5904 213.0001,-2893.5903"/>
</g>
<!-- 140395484002064 -->
<g id="node14" class="node">
<title>140395484002064</title>
<polygon fill="none" stroke="#000000" points="178.5,-2774.5 178.5,-2810.5 240.5,-2810.5 240.5,-2774.5 178.5,-2774.5"/>
<text text-anchor="middle" x="209.5" y="-2788.8" font-family="Times,serif" font-size="14.00" fill="#000000">Conv2D</text>
</g>
<!-- 140395484262032&#45;&gt;140395484002064 -->
<g id="edge13" class="edge">
<title>140395484262032&#45;&gt;140395484002064</title>
<path fill="none" stroke="#000000" d="M209.5,-2847.4551C209.5,-2839.3828 209.5,-2829.6764 209.5,-2820.6817"/>
<polygon fill="#000000" stroke="#000000" points="213.0001,-2820.5903 209.5,-2810.5904 206.0001,-2820.5904 213.0001,-2820.5903"/>
</g>
<!-- 140395483455056 -->
<g id="node15" class="node">
<title>140395483455056</title>
<polygon fill="none" stroke="#000000" points="138,-2701.5 138,-2737.5 281,-2737.5 281,-2701.5 138,-2701.5"/>
<text text-anchor="middle" x="209.5" y="-2715.8" font-family="Times,serif" font-size="14.00" fill="#000000">BatchNormalizationV1</text>
</g>
<!-- 140395484002064&#45;&gt;140395483455056 -->
<g id="edge14" class="edge">
<title>140395484002064&#45;&gt;140395483455056</title>
<path fill="none" stroke="#000000" d="M209.5,-2774.4551C209.5,-2766.3828 209.5,-2756.6764 209.5,-2747.6817"/>
<polygon fill="#000000" stroke="#000000" points="213.0001,-2747.5903 209.5,-2737.5904 206.0001,-2747.5904 213.0001,-2747.5903"/>
</g>
<!-- 140395483140752 -->
<g id="node16" class="node">
<title>140395483140752</title>
<polygon fill="none" stroke="#000000" points="178.5,-2628.5 178.5,-2664.5 240.5,-2664.5 240.5,-2628.5 178.5,-2628.5"/>
<text text-anchor="middle" x="209.5" y="-2642.8" font-family="Times,serif" font-size="14.00" fill="#000000">Conv2D</text>
</g>
<!-- 140395483455056&#45;&gt;140395483140752 -->
<g id="edge15" class="edge">
<title>140395483455056&#45;&gt;140395483140752</title>
<path fill="none" stroke="#000000" d="M209.5,-2701.4551C209.5,-2693.3828 209.5,-2683.6764 209.5,-2674.6817"/>
<polygon fill="#000000" stroke="#000000" points="213.0001,-2674.5903 209.5,-2664.5904 206.0001,-2674.5904 213.0001,-2674.5903"/>
</g>
<!-- 140395483311760 -->
<g id="node17" class="node">
<title>140395483311760</title>
<polygon fill="none" stroke="#000000" points="69,-2555.5 69,-2591.5 212,-2591.5 212,-2555.5 69,-2555.5"/>
<text text-anchor="middle" x="140.5" y="-2569.8" font-family="Times,serif" font-size="14.00" fill="#000000">BatchNormalizationV1</text>
</g>
<!-- 140395483140752&#45;&gt;140395483311760 -->
<g id="edge16" class="edge">
<title>140395483140752&#45;&gt;140395483311760</title>
<path fill="none" stroke="#000000" d="M192.4438,-2628.4551C184.0675,-2619.5932 173.8295,-2608.7616 164.6638,-2599.0646"/>
<polygon fill="#000000" stroke="#000000" points="167.0119,-2596.4535 157.5991,-2591.5904 161.9247,-2601.262 167.0119,-2596.4535"/>
</g>
<!-- 140395479356304 -->
<g id="node35" class="node">
<title>140395479356304</title>
<polygon fill="none" stroke="#000000" points="168,-1241.5 168,-1277.5 251,-1277.5 251,-1241.5 168,-1241.5"/>
<text text-anchor="middle" x="209.5" y="-1255.8" font-family="Times,serif" font-size="14.00" fill="#000000">Concatenate</text>
</g>
<!-- 140395483140752&#45;&gt;140395479356304 -->
<g id="edge36" class="edge">
<title>140395483140752&#45;&gt;140395479356304</title>
<path fill="none" stroke="#000000" d="M215.9232,-2628.3254C225.0033,-2600.9656 240.5,-2547.4013 240.5,-2500.5 240.5,-2500.5 240.5,-2500.5 240.5,-1405.5 240.5,-1363.7286 228.2078,-1316.6719 219.1042,-1287.5495"/>
<polygon fill="#000000" stroke="#000000" points="222.3209,-1286.1198 215.9232,-1277.6746 215.658,-1288.2661 222.3209,-1286.1198"/>
</g>
<!-- 140395483311312 -->
<g id="node18" class="node">
<title>140395483311312</title>
<polygon fill="none" stroke="#000000" points="90,-2482.5 90,-2518.5 191,-2518.5 191,-2482.5 90,-2482.5"/>
<text text-anchor="middle" x="140.5" y="-2496.8" font-family="Times,serif" font-size="14.00" fill="#000000">MaxPooling2D</text>
</g>
<!-- 140395483311760&#45;&gt;140395483311312 -->
<g id="edge17" class="edge">
<title>140395483311760&#45;&gt;140395483311312</title>
<path fill="none" stroke="#000000" d="M140.5,-2555.4551C140.5,-2547.3828 140.5,-2537.6764 140.5,-2528.6817"/>
<polygon fill="#000000" stroke="#000000" points="144.0001,-2528.5903 140.5,-2518.5904 137.0001,-2528.5904 144.0001,-2528.5903"/>
</g>
<!-- 140395482766608 -->
<g id="node19" class="node">
<title>140395482766608</title>
<polygon fill="none" stroke="#000000" points="109.5,-2409.5 109.5,-2445.5 171.5,-2445.5 171.5,-2409.5 109.5,-2409.5"/>
<text text-anchor="middle" x="140.5" y="-2423.8" font-family="Times,serif" font-size="14.00" fill="#000000">Conv2D</text>
</g>
<!-- 140395483311312&#45;&gt;140395482766608 -->
<g id="edge18" class="edge">
<title>140395483311312&#45;&gt;140395482766608</title>
<path fill="none" stroke="#000000" d="M140.5,-2482.4551C140.5,-2474.3828 140.5,-2464.6764 140.5,-2455.6817"/>
<polygon fill="#000000" stroke="#000000" points="144.0001,-2455.5903 140.5,-2445.5904 137.0001,-2455.5904 144.0001,-2455.5903"/>
</g>
<!-- 140395482495760 -->
<g id="node20" class="node">
<title>140395482495760</title>
<polygon fill="none" stroke="#000000" points="69,-2336.5 69,-2372.5 212,-2372.5 212,-2336.5 69,-2336.5"/>
<text text-anchor="middle" x="140.5" y="-2350.8" font-family="Times,serif" font-size="14.00" fill="#000000">BatchNormalizationV1</text>
</g>
<!-- 140395482766608&#45;&gt;140395482495760 -->
<g id="edge19" class="edge">
<title>140395482766608&#45;&gt;140395482495760</title>
<path fill="none" stroke="#000000" d="M140.5,-2409.4551C140.5,-2401.3828 140.5,-2391.6764 140.5,-2382.6817"/>
<polygon fill="#000000" stroke="#000000" points="144.0001,-2382.5903 140.5,-2372.5904 137.0001,-2382.5904 144.0001,-2382.5903"/>
</g>
<!-- 140395482198736 -->
<g id="node21" class="node">
<title>140395482198736</title>
<polygon fill="none" stroke="#000000" points="109.5,-2263.5 109.5,-2299.5 171.5,-2299.5 171.5,-2263.5 109.5,-2263.5"/>
<text text-anchor="middle" x="140.5" y="-2277.8" font-family="Times,serif" font-size="14.00" fill="#000000">Conv2D</text>
</g>
<!-- 140395482495760&#45;&gt;140395482198736 -->
<g id="edge20" class="edge">
<title>140395482495760&#45;&gt;140395482198736</title>
<path fill="none" stroke="#000000" d="M140.5,-2336.4551C140.5,-2328.3828 140.5,-2318.6764 140.5,-2309.6817"/>
<polygon fill="#000000" stroke="#000000" points="144.0001,-2309.5903 140.5,-2299.5904 137.0001,-2309.5904 144.0001,-2309.5903"/>
</g>
<!-- 140395481826256 -->
<g id="node22" class="node">
<title>140395481826256</title>
<polygon fill="none" stroke="#000000" points="0,-2190.5 0,-2226.5 143,-2226.5 143,-2190.5 0,-2190.5"/>
<text text-anchor="middle" x="71.5" y="-2204.8" font-family="Times,serif" font-size="14.00" fill="#000000">BatchNormalizationV1</text>
</g>
<!-- 140395482198736&#45;&gt;140395481826256 -->
<g id="edge21" class="edge">
<title>140395482198736&#45;&gt;140395481826256</title>
<path fill="none" stroke="#000000" d="M123.4438,-2263.4551C115.0675,-2254.5932 104.8295,-2243.7616 95.6638,-2234.0646"/>
<polygon fill="#000000" stroke="#000000" points="98.0119,-2231.4535 88.5991,-2226.5904 92.9247,-2236.262 98.0119,-2231.4535"/>
</g>
<!-- 140395480236880 -->
<g id="node29" class="node">
<title>140395480236880</title>
<polygon fill="none" stroke="#000000" points="99,-1679.5 99,-1715.5 182,-1715.5 182,-1679.5 99,-1679.5"/>
<text text-anchor="middle" x="140.5" y="-1693.8" font-family="Times,serif" font-size="14.00" fill="#000000">Concatenate</text>
</g>
<!-- 140395482198736&#45;&gt;140395480236880 -->
<g id="edge29" class="edge">
<title>140395482198736&#45;&gt;140395480236880</title>
<path fill="none" stroke="#000000" d="M146.9232,-2263.3254C156.0033,-2235.9656 171.5,-2182.4013 171.5,-2135.5 171.5,-2135.5 171.5,-2135.5 171.5,-1843.5 171.5,-1801.7286 159.2078,-1754.6719 150.1042,-1725.5495"/>
<polygon fill="#000000" stroke="#000000" points="153.3209,-1724.1198 146.9232,-1715.6746 146.658,-1726.2661 153.3209,-1724.1198"/>
</g>
<!-- 140395481893648 -->
<g id="node23" class="node">
<title>140395481893648</title>
<polygon fill="none" stroke="#000000" points="21,-2117.5 21,-2153.5 122,-2153.5 122,-2117.5 21,-2117.5"/>
<text text-anchor="middle" x="71.5" y="-2131.8" font-family="Times,serif" font-size="14.00" fill="#000000">MaxPooling2D</text>
</g>
<!-- 140395481826256&#45;&gt;140395481893648 -->
<g id="edge22" class="edge">
<title>140395481826256&#45;&gt;140395481893648</title>
<path fill="none" stroke="#000000" d="M71.5,-2190.4551C71.5,-2182.3828 71.5,-2172.6764 71.5,-2163.6817"/>
<polygon fill="#000000" stroke="#000000" points="75.0001,-2163.5903 71.5,-2153.5904 68.0001,-2163.5904 75.0001,-2163.5903"/>
</g>
<!-- 140395481713232 -->
<g id="node24" class="node">
<title>140395481713232</title>
<polygon fill="none" stroke="#000000" points="40.5,-2044.5 40.5,-2080.5 102.5,-2080.5 102.5,-2044.5 40.5,-2044.5"/>
<text text-anchor="middle" x="71.5" y="-2058.8" font-family="Times,serif" font-size="14.00" fill="#000000">Conv2D</text>
</g>
<!-- 140395481893648&#45;&gt;140395481713232 -->
<g id="edge23" class="edge">
<title>140395481893648&#45;&gt;140395481713232</title>
<path fill="none" stroke="#000000" d="M71.5,-2117.4551C71.5,-2109.3828 71.5,-2099.6764 71.5,-2090.6817"/>
<polygon fill="#000000" stroke="#000000" points="75.0001,-2090.5903 71.5,-2080.5904 68.0001,-2090.5904 75.0001,-2090.5903"/>
</g>
<!-- 140395481427216 -->
<g id="node25" class="node">
<title>140395481427216</title>
<polygon fill="none" stroke="#000000" points="0,-1971.5 0,-2007.5 143,-2007.5 143,-1971.5 0,-1971.5"/>
<text text-anchor="middle" x="71.5" y="-1985.8" font-family="Times,serif" font-size="14.00" fill="#000000">BatchNormalizationV1</text>
</g>
<!-- 140395481713232&#45;&gt;140395481427216 -->
<g id="edge24" class="edge">
<title>140395481713232&#45;&gt;140395481427216</title>
<path fill="none" stroke="#000000" d="M71.5,-2044.4551C71.5,-2036.3828 71.5,-2026.6764 71.5,-2017.6817"/>
<polygon fill="#000000" stroke="#000000" points="75.0001,-2017.5903 71.5,-2007.5904 68.0001,-2017.5904 75.0001,-2017.5903"/>
</g>
<!-- 140395480724304 -->
<g id="node26" class="node">
<title>140395480724304</title>
<polygon fill="none" stroke="#000000" points="40.5,-1898.5 40.5,-1934.5 102.5,-1934.5 102.5,-1898.5 40.5,-1898.5"/>
<text text-anchor="middle" x="71.5" y="-1912.8" font-family="Times,serif" font-size="14.00" fill="#000000">Conv2D</text>
</g>
<!-- 140395481427216&#45;&gt;140395480724304 -->
<g id="edge25" class="edge">
<title>140395481427216&#45;&gt;140395480724304</title>
<path fill="none" stroke="#000000" d="M71.5,-1971.4551C71.5,-1963.3828 71.5,-1953.6764 71.5,-1944.6817"/>
<polygon fill="#000000" stroke="#000000" points="75.0001,-1944.5903 71.5,-1934.5904 68.0001,-1944.5904 75.0001,-1944.5903"/>
</g>
<!-- 140395480820304 -->
<g id="node27" class="node">
<title>140395480820304</title>
<polygon fill="none" stroke="#000000" points="0,-1825.5 0,-1861.5 143,-1861.5 143,-1825.5 0,-1825.5"/>
<text text-anchor="middle" x="71.5" y="-1839.8" font-family="Times,serif" font-size="14.00" fill="#000000">BatchNormalizationV1</text>
</g>
<!-- 140395480724304&#45;&gt;140395480820304 -->
<g id="edge26" class="edge">
<title>140395480724304&#45;&gt;140395480820304</title>
<path fill="none" stroke="#000000" d="M71.5,-1898.4551C71.5,-1890.3828 71.5,-1880.6764 71.5,-1871.6817"/>
<polygon fill="#000000" stroke="#000000" points="75.0001,-1871.5903 71.5,-1861.5904 68.0001,-1871.5904 75.0001,-1871.5903"/>
</g>
<!-- 140395480880912 -->
<g id="node28" class="node">
<title>140395480880912</title>
<polygon fill="none" stroke="#000000" points="31.5,-1752.5 31.5,-1788.5 133.5,-1788.5 133.5,-1752.5 31.5,-1752.5"/>
<text text-anchor="middle" x="82.5" y="-1766.8" font-family="Times,serif" font-size="14.00" fill="#000000">UpSampling2D</text>
</g>
<!-- 140395480820304&#45;&gt;140395480880912 -->
<g id="edge27" class="edge">
<title>140395480820304&#45;&gt;140395480880912</title>
<path fill="none" stroke="#000000" d="M74.2191,-1825.4551C75.4355,-1817.3828 76.8981,-1807.6764 78.2534,-1798.6817"/>
<polygon fill="#000000" stroke="#000000" points="81.7449,-1799.0003 79.7741,-1788.5904 74.823,-1797.9572 81.7449,-1799.0003"/>
</g>
<!-- 140395480880912&#45;&gt;140395480236880 -->
<g id="edge28" class="edge">
<title>140395480880912&#45;&gt;140395480236880</title>
<path fill="none" stroke="#000000" d="M96.8371,-1752.4551C103.7386,-1743.7686 112.1437,-1733.1898 119.7296,-1723.642"/>
<polygon fill="#000000" stroke="#000000" points="122.6464,-1725.5972 126.1268,-1715.5904 117.1657,-1721.2427 122.6464,-1725.5972"/>
</g>
<!-- 140395480410960 -->
<g id="node30" class="node">
<title>140395480410960</title>
<polygon fill="none" stroke="#000000" points="109.5,-1606.5 109.5,-1642.5 171.5,-1642.5 171.5,-1606.5 109.5,-1606.5"/>
<text text-anchor="middle" x="140.5" y="-1620.8" font-family="Times,serif" font-size="14.00" fill="#000000">Conv2D</text>
</g>
<!-- 140395480236880&#45;&gt;140395480410960 -->
<g id="edge30" class="edge">
<title>140395480236880&#45;&gt;140395480410960</title>
<path fill="none" stroke="#000000" d="M140.5,-1679.4551C140.5,-1671.3828 140.5,-1661.6764 140.5,-1652.6817"/>
<polygon fill="#000000" stroke="#000000" points="144.0001,-1652.5903 140.5,-1642.5904 137.0001,-1652.5904 144.0001,-1652.5903"/>
</g>
<!-- 140395480008784 -->
<g id="node31" class="node">
<title>140395480008784</title>
<polygon fill="none" stroke="#000000" points="69,-1533.5 69,-1569.5 212,-1569.5 212,-1533.5 69,-1533.5"/>
<text text-anchor="middle" x="140.5" y="-1547.8" font-family="Times,serif" font-size="14.00" fill="#000000">BatchNormalizationV1</text>
</g>
<!-- 140395480410960&#45;&gt;140395480008784 -->
<g id="edge31" class="edge">
<title>140395480410960&#45;&gt;140395480008784</title>
<path fill="none" stroke="#000000" d="M140.5,-1606.4551C140.5,-1598.3828 140.5,-1588.6764 140.5,-1579.6817"/>
<polygon fill="#000000" stroke="#000000" points="144.0001,-1579.5903 140.5,-1569.5904 137.0001,-1579.5904 144.0001,-1579.5903"/>
</g>
<!-- 140395479878992 -->
<g id="node32" class="node">
<title>140395479878992</title>
<polygon fill="none" stroke="#000000" points="109.5,-1460.5 109.5,-1496.5 171.5,-1496.5 171.5,-1460.5 109.5,-1460.5"/>
<text text-anchor="middle" x="140.5" y="-1474.8" font-family="Times,serif" font-size="14.00" fill="#000000">Conv2D</text>
</g>
<!-- 140395480008784&#45;&gt;140395479878992 -->
<g id="edge32" class="edge">
<title>140395480008784&#45;&gt;140395479878992</title>
<path fill="none" stroke="#000000" d="M140.5,-1533.4551C140.5,-1525.3828 140.5,-1515.6764 140.5,-1506.6817"/>
<polygon fill="#000000" stroke="#000000" points="144.0001,-1506.5903 140.5,-1496.5904 137.0001,-1506.5904 144.0001,-1506.5903"/>
</g>
<!-- 140395479465744 -->
<g id="node33" class="node">
<title>140395479465744</title>
<polygon fill="none" stroke="#000000" points="69,-1387.5 69,-1423.5 212,-1423.5 212,-1387.5 69,-1387.5"/>
<text text-anchor="middle" x="140.5" y="-1401.8" font-family="Times,serif" font-size="14.00" fill="#000000">BatchNormalizationV1</text>
</g>
<!-- 140395479878992&#45;&gt;140395479465744 -->
<g id="edge33" class="edge">
<title>140395479878992&#45;&gt;140395479465744</title>
<path fill="none" stroke="#000000" d="M140.5,-1460.4551C140.5,-1452.3828 140.5,-1442.6764 140.5,-1433.6817"/>
<polygon fill="#000000" stroke="#000000" points="144.0001,-1433.5903 140.5,-1423.5904 137.0001,-1433.5904 144.0001,-1433.5903"/>
</g>
<!-- 140395479464720 -->
<g id="node34" class="node">
<title>140395479464720</title>
<polygon fill="none" stroke="#000000" points="99.5,-1314.5 99.5,-1350.5 201.5,-1350.5 201.5,-1314.5 99.5,-1314.5"/>
<text text-anchor="middle" x="150.5" y="-1328.8" font-family="Times,serif" font-size="14.00" fill="#000000">UpSampling2D</text>
</g>
<!-- 140395479465744&#45;&gt;140395479464720 -->
<g id="edge34" class="edge">
<title>140395479465744&#45;&gt;140395479464720</title>
<path fill="none" stroke="#000000" d="M142.9719,-1387.4551C144.0777,-1379.3828 145.4073,-1369.6764 146.6395,-1360.6817"/>
<polygon fill="#000000" stroke="#000000" points="150.1322,-1360.9729 148.0219,-1350.5904 143.197,-1360.0228 150.1322,-1360.9729"/>
</g>
<!-- 140395479464720&#45;&gt;140395479356304 -->
<g id="edge35" class="edge">
<title>140395479464720&#45;&gt;140395479356304</title>
<path fill="none" stroke="#000000" d="M165.0843,-1314.4551C172.1048,-1305.7686 180.6548,-1295.1898 188.3715,-1285.642"/>
<polygon fill="#000000" stroke="#000000" points="191.3152,-1287.5678 194.879,-1277.5904 185.871,-1283.1677 191.3152,-1287.5678"/>
</g>
<!-- 140395479414864 -->
<g id="node36" class="node">
<title>140395479414864</title>
<polygon fill="none" stroke="#000000" points="178.5,-1168.5 178.5,-1204.5 240.5,-1204.5 240.5,-1168.5 178.5,-1168.5"/>
<text text-anchor="middle" x="209.5" y="-1182.8" font-family="Times,serif" font-size="14.00" fill="#000000">Conv2D</text>
</g>
<!-- 140395479356304&#45;&gt;140395479414864 -->
<g id="edge37" class="edge">
<title>140395479356304&#45;&gt;140395479414864</title>
<path fill="none" stroke="#000000" d="M209.5,-1241.4551C209.5,-1233.3828 209.5,-1223.6764 209.5,-1214.6817"/>
<polygon fill="#000000" stroke="#000000" points="213.0001,-1214.5903 209.5,-1204.5904 206.0001,-1214.5904 213.0001,-1214.5903"/>
</g>
<!-- 140395478604112 -->
<g id="node37" class="node">
<title>140395478604112</title>
<polygon fill="none" stroke="#000000" points="138,-1095.5 138,-1131.5 281,-1131.5 281,-1095.5 138,-1095.5"/>
<text text-anchor="middle" x="209.5" y="-1109.8" font-family="Times,serif" font-size="14.00" fill="#000000">BatchNormalizationV1</text>
</g>
<!-- 140395479414864&#45;&gt;140395478604112 -->
<g id="edge38" class="edge">
<title>140395479414864&#45;&gt;140395478604112</title>
<path fill="none" stroke="#000000" d="M209.5,-1168.4551C209.5,-1160.3828 209.5,-1150.6764 209.5,-1141.6817"/>
<polygon fill="#000000" stroke="#000000" points="213.0001,-1141.5903 209.5,-1131.5904 206.0001,-1141.5904 213.0001,-1141.5903"/>
</g>
<!-- 140395478468816 -->
<g id="node38" class="node">
<title>140395478468816</title>
<polygon fill="none" stroke="#000000" points="178.5,-1022.5 178.5,-1058.5 240.5,-1058.5 240.5,-1022.5 178.5,-1022.5"/>
<text text-anchor="middle" x="209.5" y="-1036.8" font-family="Times,serif" font-size="14.00" fill="#000000">Conv2D</text>
</g>
<!-- 140395478604112&#45;&gt;140395478468816 -->
<g id="edge39" class="edge">
<title>140395478604112&#45;&gt;140395478468816</title>
<path fill="none" stroke="#000000" d="M209.5,-1095.4551C209.5,-1087.3828 209.5,-1077.6764 209.5,-1068.6817"/>
<polygon fill="#000000" stroke="#000000" points="213.0001,-1068.5903 209.5,-1058.5904 206.0001,-1068.5904 213.0001,-1068.5903"/>
</g>
<!-- 140395478540752 -->
<g id="node39" class="node">
<title>140395478540752</title>
<polygon fill="none" stroke="#000000" points="138,-949.5 138,-985.5 281,-985.5 281,-949.5 138,-949.5"/>
<text text-anchor="middle" x="209.5" y="-963.8" font-family="Times,serif" font-size="14.00" fill="#000000">BatchNormalizationV1</text>
</g>
<!-- 140395478468816&#45;&gt;140395478540752 -->
<g id="edge40" class="edge">
<title>140395478468816&#45;&gt;140395478540752</title>
<path fill="none" stroke="#000000" d="M209.5,-1022.4551C209.5,-1014.3828 209.5,-1004.6764 209.5,-995.6817"/>
<polygon fill="#000000" stroke="#000000" points="213.0001,-995.5903 209.5,-985.5904 206.0001,-995.5904 213.0001,-995.5903"/>
</g>
<!-- 140395478541968 -->
<g id="node40" class="node">
<title>140395478541968</title>
<polygon fill="none" stroke="#000000" points="169.5,-876.5 169.5,-912.5 271.5,-912.5 271.5,-876.5 169.5,-876.5"/>
<text text-anchor="middle" x="220.5" y="-890.8" font-family="Times,serif" font-size="14.00" fill="#000000">UpSampling2D</text>
</g>
<!-- 140395478540752&#45;&gt;140395478541968 -->
<g id="edge41" class="edge">
<title>140395478540752&#45;&gt;140395478541968</title>
<path fill="none" stroke="#000000" d="M212.2191,-949.4551C213.4355,-941.3828 214.8981,-931.6764 216.2534,-922.6817"/>
<polygon fill="#000000" stroke="#000000" points="219.7449,-923.0003 217.7741,-912.5904 212.823,-921.9572 219.7449,-923.0003"/>
</g>
<!-- 140395478541968&#45;&gt;140395477900432 -->
<g id="edge42" class="edge">
<title>140395478541968&#45;&gt;140395477900432</title>
<path fill="none" stroke="#000000" d="M234.8371,-876.4551C241.7386,-867.7686 250.1437,-857.1898 257.7296,-847.642"/>
<polygon fill="#000000" stroke="#000000" points="260.6464,-849.5972 264.1268,-839.5904 255.1657,-845.2427 260.6464,-849.5972"/>
</g>
<!-- 140395478276048 -->
<g id="node42" class="node">
<title>140395478276048</title>
<polygon fill="none" stroke="#000000" points="247.5,-730.5 247.5,-766.5 309.5,-766.5 309.5,-730.5 247.5,-730.5"/>
<text text-anchor="middle" x="278.5" y="-744.8" font-family="Times,serif" font-size="14.00" fill="#000000">Conv2D</text>
</g>
<!-- 140395477900432&#45;&gt;140395478276048 -->
<g id="edge44" class="edge">
<title>140395477900432&#45;&gt;140395478276048</title>
<path fill="none" stroke="#000000" d="M278.5,-803.4551C278.5,-795.3828 278.5,-785.6764 278.5,-776.6817"/>
<polygon fill="#000000" stroke="#000000" points="282.0001,-776.5903 278.5,-766.5904 275.0001,-776.5904 282.0001,-776.5903"/>
</g>
<!-- 140395477548752 -->
<g id="node43" class="node">
<title>140395477548752</title>
<polygon fill="none" stroke="#000000" points="207,-657.5 207,-693.5 350,-693.5 350,-657.5 207,-657.5"/>
<text text-anchor="middle" x="278.5" y="-671.8" font-family="Times,serif" font-size="14.00" fill="#000000">BatchNormalizationV1</text>
</g>
<!-- 140395478276048&#45;&gt;140395477548752 -->
<g id="edge45" class="edge">
<title>140395478276048&#45;&gt;140395477548752</title>
<path fill="none" stroke="#000000" d="M278.5,-730.4551C278.5,-722.3828 278.5,-712.6764 278.5,-703.6817"/>
<polygon fill="#000000" stroke="#000000" points="282.0001,-703.5903 278.5,-693.5904 275.0001,-703.5904 282.0001,-703.5903"/>
</g>
<!-- 140395477545168 -->
<g id="node44" class="node">
<title>140395477545168</title>
<polygon fill="none" stroke="#000000" points="247.5,-584.5 247.5,-620.5 309.5,-620.5 309.5,-584.5 247.5,-584.5"/>
<text text-anchor="middle" x="278.5" y="-598.8" font-family="Times,serif" font-size="14.00" fill="#000000">Conv2D</text>
</g>
<!-- 140395477548752&#45;&gt;140395477545168 -->
<g id="edge46" class="edge">
<title>140395477548752&#45;&gt;140395477545168</title>
<path fill="none" stroke="#000000" d="M278.5,-657.4551C278.5,-649.3828 278.5,-639.6764 278.5,-630.6817"/>
<polygon fill="#000000" stroke="#000000" points="282.0001,-630.5903 278.5,-620.5904 275.0001,-630.5904 282.0001,-630.5903"/>
</g>
<!-- 140395477093200 -->
<g id="node45" class="node">
<title>140395477093200</title>
<polygon fill="none" stroke="#000000" points="207,-511.5 207,-547.5 350,-547.5 350,-511.5 207,-511.5"/>
<text text-anchor="middle" x="278.5" y="-525.8" font-family="Times,serif" font-size="14.00" fill="#000000">BatchNormalizationV1</text>
</g>
<!-- 140395477545168&#45;&gt;140395477093200 -->
<g id="edge47" class="edge">
<title>140395477545168&#45;&gt;140395477093200</title>
<path fill="none" stroke="#000000" d="M278.5,-584.4551C278.5,-576.3828 278.5,-566.6764 278.5,-557.6817"/>
<polygon fill="#000000" stroke="#000000" points="282.0001,-557.5903 278.5,-547.5904 275.0001,-557.5904 282.0001,-557.5903"/>
</g>
<!-- 140395477139280 -->
<g id="node46" class="node">
<title>140395477139280</title>
<polygon fill="none" stroke="#000000" points="238.5,-438.5 238.5,-474.5 340.5,-474.5 340.5,-438.5 238.5,-438.5"/>
<text text-anchor="middle" x="289.5" y="-452.8" font-family="Times,serif" font-size="14.00" fill="#000000">UpSampling2D</text>
</g>
<!-- 140395477093200&#45;&gt;140395477139280 -->
<g id="edge48" class="edge">
<title>140395477093200&#45;&gt;140395477139280</title>
<path fill="none" stroke="#000000" d="M281.2191,-511.4551C282.4355,-503.3828 283.8981,-493.6764 285.2534,-484.6817"/>
<polygon fill="#000000" stroke="#000000" points="288.7449,-485.0003 286.7741,-474.5904 281.823,-483.9572 288.7449,-485.0003"/>
</g>
<!-- 140395477139280&#45;&gt;140395476502096 -->
<g id="edge49" class="edge">
<title>140395477139280&#45;&gt;140395476502096</title>
<path fill="none" stroke="#000000" d="M299.1405,-438.4551C303.6405,-430.0319 309.0912,-419.8292 314.0685,-410.5128"/>
<polygon fill="#000000" stroke="#000000" points="317.2102,-412.0598 318.8353,-401.5904 311.036,-408.7613 317.2102,-412.0598"/>
</g>
<!-- 140395476893904 -->
<g id="node48" class="node">
<title>140395476893904</title>
<polygon fill="none" stroke="#000000" points="297.5,-292.5 297.5,-328.5 359.5,-328.5 359.5,-292.5 297.5,-292.5"/>
<text text-anchor="middle" x="328.5" y="-306.8" font-family="Times,serif" font-size="14.00" fill="#000000">Conv2D</text>
</g>
<!-- 140395476502096&#45;&gt;140395476893904 -->
<g id="edge51" class="edge">
<title>140395476502096&#45;&gt;140395476893904</title>
<path fill="none" stroke="#000000" d="M328.5,-365.4551C328.5,-357.3828 328.5,-347.6764 328.5,-338.6817"/>
<polygon fill="#000000" stroke="#000000" points="332.0001,-338.5903 328.5,-328.5904 325.0001,-338.5904 332.0001,-338.5903"/>
</g>
<!-- 140395476276944 -->
<g id="node49" class="node">
<title>140395476276944</title>
<polygon fill="none" stroke="#000000" points="257,-219.5 257,-255.5 400,-255.5 400,-219.5 257,-219.5"/>
<text text-anchor="middle" x="328.5" y="-233.8" font-family="Times,serif" font-size="14.00" fill="#000000">BatchNormalizationV1</text>
</g>
<!-- 140395476893904&#45;&gt;140395476276944 -->
<g id="edge52" class="edge">
<title>140395476893904&#45;&gt;140395476276944</title>
<path fill="none" stroke="#000000" d="M328.5,-292.4551C328.5,-284.3828 328.5,-274.6764 328.5,-265.6817"/>
<polygon fill="#000000" stroke="#000000" points="332.0001,-265.5903 328.5,-255.5904 325.0001,-265.5904 332.0001,-265.5903"/>
</g>
<!-- 140395476146384 -->
<g id="node50" class="node">
<title>140395476146384</title>
<polygon fill="none" stroke="#000000" points="297.5,-146.5 297.5,-182.5 359.5,-182.5 359.5,-146.5 297.5,-146.5"/>
<text text-anchor="middle" x="328.5" y="-160.8" font-family="Times,serif" font-size="14.00" fill="#000000">Conv2D</text>
</g>
<!-- 140395476276944&#45;&gt;140395476146384 -->
<g id="edge53" class="edge">
<title>140395476276944&#45;&gt;140395476146384</title>
<path fill="none" stroke="#000000" d="M328.5,-219.4551C328.5,-211.3828 328.5,-201.6764 328.5,-192.6817"/>
<polygon fill="#000000" stroke="#000000" points="332.0001,-192.5903 328.5,-182.5904 325.0001,-192.5904 332.0001,-192.5903"/>
</g>
<!-- 140395476220944 -->
<g id="node51" class="node">
<title>140395476220944</title>
<polygon fill="none" stroke="#000000" points="257,-73.5 257,-109.5 400,-109.5 400,-73.5 257,-73.5"/>
<text text-anchor="middle" x="328.5" y="-87.8" font-family="Times,serif" font-size="14.00" fill="#000000">BatchNormalizationV1</text>
</g>
<!-- 140395476146384&#45;&gt;140395476220944 -->
<g id="edge54" class="edge">
<title>140395476146384&#45;&gt;140395476220944</title>
<path fill="none" stroke="#000000" d="M328.5,-146.4551C328.5,-138.3828 328.5,-128.6764 328.5,-119.6817"/>
<polygon fill="#000000" stroke="#000000" points="332.0001,-119.5903 328.5,-109.5904 325.0001,-119.5904 332.0001,-119.5903"/>
</g>
<!-- 140395476219920 -->
<g id="node52" class="node">
<title>140395476219920</title>
<polygon fill="none" stroke="#000000" points="297.5,-.5 297.5,-36.5 359.5,-36.5 359.5,-.5 297.5,-.5"/>
<text text-anchor="middle" x="328.5" y="-14.8" font-family="Times,serif" font-size="14.00" fill="#000000">Conv2D</text>
</g>
<!-- 140395476220944&#45;&gt;140395476219920 -->
<g id="edge55" class="edge">
<title>140395476220944&#45;&gt;140395476219920</title>
<path fill="none" stroke="#000000" d="M328.5,-73.4551C328.5,-65.3828 328.5,-55.6764 328.5,-46.6817"/>
<polygon fill="#000000" stroke="#000000" points="332.0001,-46.5903 328.5,-36.5904 325.0001,-46.5904 332.0001,-46.5903"/>
</g>
</g>
</svg>
